<svg role="img" viewBox="0 0 24 24" xmlns="http://www.w3.org/2000/svg"><g fill="#FFFFFF"><path d="M16.1,7.3c-0.1,0-0.1,0-0.5,0v0c-0.4,0-0.4,0-0.5,0.1c-0.1,0.1-0.2,0.2-0.2,0.3c0,0.1,0,1.2,0,3.1v3.1l0.7,1.1 l0.7,1.1l0-4.2c0-2.9,0-4.2,0-4.3C16.3,7.4,16.2,7.3,16.1,7.3z"/><path d="M18.5,22.1l-1.9-2.9c-1.6-2.4-3.1-4.8-4.7-7.1C10.3,9.7,9,7.8,9,7.7C8.9,7.6,8.8,7.6,8.3,7.6 c-0.4,0-0.4,0-0.5,0.1c-0.1,0-0.1,0.1-0.2,0.1L7.5,7.8l0,4.7l0,4.7l0,0.1c0,0.1,0.1,0.1,0.2,0.2l0.1,0.1h0.4c0.4,0,0.4,0,0.5,0 c0.1-0.1,0.1-0.1,0.2-0.2c0-0.1,0-0.2,0.1-3.6c0-1.9,0-3.5,0-3.5c0,0,1.1,1.6,2.4,3.5l2.4,3.5l1.9,2.6c1.1,1.4,1.9,2.6,2,2.6 c0.2-0.1,0.3-0.1,0.5-0.2C18.2,22.2,18.4,22.1,18.5,22.1z"/></g><path fill="#000000" d="M11.6,0.1c-0.2,0-0.3,0-0.4,0c-0.1,0-0.2,0-0.4,0C7.5,0.4,4.3,2.2,2.3,5c-1.1,1.6-1.8,3.3-2.1,5.2c-0.1,0.7-0.1,0.8-0.1,1.7 s0,1.1,0.1,1.7C0.8,18.2,4,22,8.3,23.4c0.8,0.2,1.6,0.4,2.5,0.5c0.4,0,1.9,0,2.3,0c1.6-0.2,3-0.6,4.3-1.3c0.2-0.1,0.2-0.1,0.2-0.2 c0,0-0.9-1.2-1.9-2.6l-1.9-2.6l-2.4-3.5C10.1,11.8,9,10.2,9,10.2c0,0,0,1.6,0,3.5c0,3.4,0,3.5-0.1,3.6c-0.1,0.1-0.1,0.2-0.2,0.2 c-0.1,0-0.1,0-0.5,0H7.8l-0.1-0.1c-0.1,0-0.1-0.1-0.2-0.2l0-0.1l0-4.7l0-4.7l0.1-0.1c0,0,0.1-0.1,0.2-0.1c0.1,0,0.1-0.1,0.5-0.1 c0.5,0,0.6,0,0.7,0.2c0,0,1.3,2,2.9,4.3c1.6,2.4,3.1,4.8,4.7,7.1l1.9,2.9l0.1-0.1c0.8-0.6,1.7-1.3,2.5-2.2c1.5-1.7,2.5-3.9,2.8-6.1 c0.1-0.7,0.1-0.9,0.1-1.7c0-0.9,0-1.1-0.1-1.7C23.2,5.8,20,2,15.7,0.6c-0.8-0.2-1.6-0.4-2.5-0.5C13,0.1,12.1,0.1,11.6,0.1L11.6,0.1z M15.6,7.2c0.3,0,0.4,0,0.5,0c0.1,0.1,0.2,0.2,0.2,0.3c0,0.1,0,1.4,0,4.3l0,4.2l-0.7-1.1l-0.7-1.1v-3.1c0-2,0-3.1,0-3.1 c0-0.1,0.1-0.2,0.2-0.3C15.2,7.2,15.3,7.2,15.6,7.2L15.6,7.2z"/></svg>